# xmcd
#
# Track frame offsets:
#	150
#	14311
#	28515
#	47098
#	65118
#	86323
#	100689
#	116226
#	130198
#	153224
#
# Disc length: 2253 seconds
#
# Revision: 1
# Processed by: cddbd v1.5.2PL0 Copyright (c) Steve Scherf et al.
# Submitted via: audiograbber 1.83.01
#
DISCID=7808cb0a
DTITLE=Meadow Creek - Til Death Do Us Part
DYEAR=2018
DGENRE=Country
TTITLE0=Not Anymore
TTITLE1=Resque
TTITLE2=Small Shell FromThe Sea
TTITLE3=Til Death Do Us Part
TTITLE4=Golden Frame
TTITLE5=I Got You
TTITLE6=Hey Now
TTITLE7=So Far From Home
TTITLE8=In The Blood
TTITLE9=Time To Let It Go
EXTD=
EXTT0=
EXTT1=
EXTT2=
EXTT3=
EXTT4=
EXTT5=
EXTT6=
EXTT7=
EXTT8=
EXTT9=
PLAYORDER=
